<?xml version="1.0" encoding="UTF-8"?> <svg xmlns="http://www.w3.org/2000/svg" width="148" height="48" viewBox="0 0 148 48" fill="none"><g id="galaxy-webllinks-logo-white 1" clip-path="url(#clip0_1394_32309)"><path id="Vector" fill-rule="evenodd" clip-rule="evenodd" d="M12.8842 26.1574C19.9999 26.1574 25.7684 20.3019 25.7684 13.0787C25.7684 5.85553 19.9999 0 12.8842 0C5.76845 0 0 5.85553 0 13.0787C0 20.3019 5.76845 26.1574 12.8842 26.1574ZM12.9379 20.4661C16.9275 20.4661 20.1617 17.1831 20.1617 13.1333C20.1617 9.08348 16.9275 5.80044 12.9379 5.80044C8.94839 5.80044 5.71417 9.08348 5.71417 13.1333C5.71417 17.1831 8.94839 20.4661 12.9379 20.4661Z" fill="#FFAA01"></path><path id="Vector_2" d="M11.8594 0H26.846C26.846 0 26.5531 2.26076 25.8217 3.3928C25.2481 4.28056 24.6839 4.622 23.7732 5.14392C22.9728 5.60259 22.4604 5.76334 21.563 5.96478C20.1035 6.29233 19.2196 6.14437 17.7354 5.96478C15.3422 5.67517 11.8594 4.04947 11.8594 4.04947V0Z" fill="#FFAA01"></path><path id="Vector_3" fill-rule="evenodd" clip-rule="evenodd" d="M2.95069 30.5293C2.85965 30.5293 2.78615 30.6027 2.78915 30.6956C2.81214 31.3971 3.01713 34.1219 4.80303 35.0765C5.57384 35.4885 6.40819 35.7703 7.24232 35.959H9.27331H18.7543C20.4079 35.959 21.7484 37.3264 21.7484 39.0131C21.7484 40.6999 20.4079 42.0673 18.7543 42.0673V47.4904C23.1933 47.3122 26.7383 43.585 26.7383 39.0131C26.7383 34.3277 23.0149 30.5293 18.4217 30.5293H13.0991H7.27732H2.95069Z" fill="#FFAA01"></path><path id="Vector_4" d="M47.2427 3.32422C49.72 3.32422 51.7341 3.9303 53.2848 5.14245C54.8529 6.35459 55.7796 8.00094 56.0649 10.0815H49.8091C49.5774 9.7016 49.2477 9.41209 48.82 9.2131C48.3923 8.996 47.8754 8.88743 47.2694 8.88743C46.1287 8.88743 45.2465 9.26736 44.6227 10.0272C43.999 10.769 43.687 11.7912 43.687 13.0938C43.687 14.5954 44.0346 15.7171 44.7297 16.4589C45.4247 17.2006 46.4941 17.5715 47.9377 17.5715C49.3101 17.5715 50.4151 17.0106 51.2528 15.889H46.5209V11.6283H56.1718V17.6529C55.352 19.0822 54.2202 20.3124 52.7765 21.3436C51.333 22.3568 49.5062 22.8634 47.2961 22.8634C45.3356 22.8634 43.6247 22.4563 42.1632 21.6422C40.7196 20.81 39.6056 19.6521 38.8214 18.1685C38.055 16.685 37.6719 14.9934 37.6719 13.0938C37.6719 11.1941 38.055 9.50256 38.8214 8.01905C39.6056 6.53553 40.7196 5.38666 42.1632 4.57255C43.6068 3.74033 45.3 3.32422 47.2427 3.32422Z" fill="#221827"></path><path id="Vector_5" d="M65.6122 7.23047C66.5924 7.23047 67.4389 7.43854 68.1518 7.85463C68.8647 8.25266 69.4085 8.80445 69.7827 9.51005V7.42043H75.6909V22.7261H69.7827V20.6365C69.4085 21.3421 68.8647 21.9029 68.1518 22.319C67.4389 22.717 66.5924 22.916 65.6122 22.916C64.4357 22.916 63.3754 22.6085 62.4307 21.9934C61.486 21.3602 60.7377 20.4556 60.1851 19.2796C59.6506 18.0856 59.3828 16.6834 59.3828 15.0733C59.3828 13.4631 59.6506 12.07 60.1851 10.8941C60.7377 9.70002 61.486 8.79543 62.4307 8.18029C63.3754 7.54706 64.4357 7.23047 65.6122 7.23047ZM67.5906 12.4952C66.9486 12.4952 66.4228 12.7213 66.0131 13.1736C65.603 13.6259 65.3979 14.2591 65.3979 15.0733C65.3979 15.8874 65.603 16.5206 66.0131 16.9729C66.4228 17.4252 66.9486 17.6513 67.5906 17.6513C68.232 17.6513 68.7578 17.4252 69.1674 16.9729C69.5776 16.5206 69.7827 15.8874 69.7827 15.0733C69.7827 14.2591 69.5776 13.6259 69.1674 13.1736C68.7578 12.7213 68.232 12.4952 67.5906 12.4952Z" fill="#221827"></path><path id="Vector_6" d="M86.1615 2.64453V22.7264H80.2266V2.64453H86.1615Z" fill="#221827"></path><path id="Vector_7" d="M96.1352 7.23047C97.1153 7.23047 97.9619 7.43854 98.6748 7.85463C99.3876 8.25266 99.9314 8.80445 100.306 9.51005V7.42043H106.214V22.7261H100.306V20.6365C99.9314 21.3421 99.3876 21.9029 98.6748 22.319C97.9619 22.717 97.1153 22.916 96.1352 22.916C94.9587 22.916 93.8983 22.6085 92.9536 21.9934C92.0095 21.3602 91.2606 20.4556 90.7081 19.2796C90.1735 18.0856 89.9062 16.6834 89.9062 15.0733C89.9062 13.4631 90.1735 12.07 90.7081 10.8941C91.2606 9.70002 92.0095 8.79543 92.9536 8.18029C93.8983 7.54706 94.9587 7.23047 96.1352 7.23047ZM98.1135 12.4952C97.472 12.4952 96.9462 12.7213 96.5361 13.1736C96.1264 13.6259 95.9214 14.2591 95.9214 15.0733C95.9214 15.8874 96.1264 16.5206 96.5361 16.9729C96.9462 17.4252 97.472 17.6513 98.1135 17.6513C98.7549 17.6513 99.2807 17.4252 99.6909 16.9729C100.101 16.5206 100.306 15.8874 100.306 15.0733C100.306 14.2591 100.101 13.6259 99.6909 13.1736C99.2807 12.7213 98.7549 12.4952 98.1135 12.4952Z" fill="#221827"></path><path id="Vector_8" d="M120.646 22.7275L118.106 19.2811L116.208 22.7275H109.685L114.738 14.6676L109.418 7.42188H116.048L118.588 10.8955L120.513 7.42188H127.036L121.822 15.2918L127.276 22.7275H120.646Z" fill="#221827"></path><path id="Vector_9" d="M135.483 7.42188L138.316 15.1833L140.963 7.42188H147.513L137.862 30.0547H131.366L135.162 21.9677L128.879 7.42188H135.483Z" fill="#221827"></path><path id="Vector_10" d="M37.5234 31.8242H38.8615L41.1948 42.1516H41.4314L41.9046 39.8162L43.7322 31.8242H45.5678L47.3872 39.8327L47.8767 42.1599H48.1133L50.4385 31.8242H51.7766L48.9047 43.7583H47.1588L44.8336 33.5303H44.548L42.1331 43.7583H40.3871L37.5234 31.8242Z" fill="#221827"></path><path id="Vector_11" d="M57.5553 43.9492C56.6579 43.9492 55.9399 43.8029 55.4017 43.5102C54.8631 43.2176 54.4689 42.7538 54.2185 42.1189C53.9739 41.4839 53.8516 40.6364 53.8516 39.5764C53.8516 38.5825 53.9739 37.7654 54.2185 37.125C54.4632 36.479 54.8549 35.9959 55.3935 35.6757C55.9322 35.3554 56.642 35.1953 57.5229 35.1953C58.3658 35.1953 59.0402 35.3223 59.5465 35.5763C60.0574 35.8303 60.43 36.2333 60.6638 36.7854C60.8977 37.332 61.0149 38.0636 61.0149 38.9801L61.0067 39.7834H55.1242C55.1242 40.5509 55.2059 41.1665 55.3688 41.6302C55.5374 42.0885 55.7985 42.4253 56.1521 42.6406C56.5114 42.8504 56.9899 42.9553 57.5882 42.9553C58.0724 42.9553 58.4609 42.9056 58.7549 42.8063C59.0541 42.7069 59.2741 42.5495 59.4159 42.3342C59.5624 42.1134 59.6441 41.8207 59.6606 41.4563H60.9414C60.9414 42.3066 60.6639 42.936 60.1093 43.3446C59.5598 43.7476 58.7087 43.9492 57.5553 43.9492ZM59.7341 38.8393C59.75 38.2043 59.6847 37.6964 59.5382 37.3155C59.3912 36.9345 59.1517 36.6557 58.8202 36.479C58.4882 36.3023 58.0451 36.214 57.49 36.214C56.9082 36.214 56.4513 36.294 56.1198 36.4542C55.7934 36.6143 55.5539 36.882 55.4017 37.2575C55.2496 37.6329 55.1622 38.1602 55.1406 38.8393H59.7341Z" fill="#221827"></path><path id="Vector_12" d="M68.1918 43.9488C67.3926 43.9488 66.7835 43.8301 66.3646 43.5926C65.9457 43.3552 65.6137 43.0405 65.369 42.6485L65.222 43.7583H64.2188V31.8242H65.4754V36.3212C65.7473 35.9182 66.0896 35.6311 66.5034 35.46C66.9218 35.2888 67.4794 35.2032 68.1759 35.2032C69.0296 35.2032 69.6931 35.3412 70.1665 35.6173C70.6394 35.8878 70.9771 36.3405 71.178 36.9755C71.3847 37.6105 71.488 38.4993 71.488 39.6422C71.488 40.6857 71.3764 41.5222 71.1534 42.1516C70.9359 42.7755 70.588 43.231 70.1095 43.5181C69.6304 43.8052 68.9916 43.9488 68.1918 43.9488ZM67.9066 42.9135C68.4992 42.9135 68.9618 42.8141 69.2933 42.6154C69.6253 42.4166 69.8617 42.0854 70.0031 41.6216C70.1444 41.1523 70.2154 40.498 70.2154 39.6588C70.2154 38.7754 70.1419 38.088 69.9949 37.5966C69.8535 37.1053 69.6171 36.7547 69.285 36.5449C68.9535 36.3351 68.4858 36.2301 67.8819 36.2301C67.224 36.2301 66.7259 36.324 66.3888 36.5117C66.0516 36.6995 65.8152 37.0279 65.679 37.4972C65.5433 37.9665 65.4754 38.6595 65.4754 39.576C65.4754 40.4373 65.5484 41.1081 65.6954 41.5885C65.8475 42.0633 66.0979 42.4028 66.4458 42.6071C66.7943 42.8114 67.281 42.9135 67.9066 42.9135Z" fill="#221827"></path><path id="Vector_13" d="M74.7812 31.8242H76.0297V43.7583H74.7812V31.8242Z" fill="#221827"></path><path id="Vector_14" d="M79.9688 32.2812H81.6412V33.8714H79.9688V32.2812ZM80.1805 35.3869H81.429V43.7598H80.1805V35.3869Z" fill="#221827"></path><path id="Vector_15" d="M85.582 35.3872H86.61L86.7076 36.5715C86.9795 36.0635 87.3388 35.7047 87.785 35.4949C88.2306 35.2796 88.8402 35.1719 89.6121 35.1719C90.3194 35.1719 90.8848 35.2878 91.3093 35.5197C91.739 35.7516 92.0515 36.1215 92.2473 36.6295C92.4431 37.1374 92.5413 37.811 92.5413 38.6502V43.7601H91.2846V38.6502C91.2846 38.065 91.2168 37.5984 91.0806 37.2506C90.9449 36.8973 90.7275 36.6405 90.4283 36.4804C90.1344 36.3203 89.7401 36.2402 89.2452 36.2402C88.6633 36.2402 88.1956 36.323 87.842 36.4887C87.4935 36.6543 87.2381 36.9166 87.0751 37.2754C86.9174 37.6343 86.8382 38.1146 86.8382 38.7165V43.7601H85.582V35.3872Z" fill="#221827"></path><path id="Vector_16" d="M103.087 43.7583H101.7L100.745 41.721C100.501 41.202 100.277 40.81 100.076 40.5449C99.875 40.2799 99.6494 40.095 99.3991 39.9901C99.1544 39.8851 98.8388 39.8327 98.4528 39.8327H97.686V43.7583H96.4375V31.8242H97.686V38.6236H98.4446C98.847 38.6236 99.1765 38.5739 99.4319 38.4745C99.6874 38.3751 99.9079 38.215 100.093 37.9941C100.277 37.7678 100.466 37.4448 100.656 37.0252L101.406 35.3854H102.736L101.985 37.0914C101.768 37.5883 101.578 37.9693 101.414 38.2344C101.251 38.4938 101.053 38.7036 100.819 38.8637C100.59 39.0239 100.289 39.1453 99.913 39.2282C100.267 39.3054 100.552 39.4269 100.77 39.5925C100.987 39.7527 101.186 39.979 101.366 40.2716C101.551 40.5643 101.784 41.0115 102.067 41.6133L103.087 43.7583Z" fill="#221827"></path><path id="Vector_17" d="M109.101 43.9492C108.323 43.9492 107.7 43.8691 107.232 43.709C106.77 43.5433 106.43 43.2838 106.213 42.9305C106 42.5716 105.895 42.0968 105.895 41.506H107.004C107.009 41.887 107.075 42.1824 107.2 42.3922C107.33 42.602 107.542 42.751 107.836 42.8394C108.13 42.9277 108.541 42.9719 109.068 42.9719C109.541 42.9719 109.908 42.925 110.169 42.8311C110.436 42.7373 110.624 42.5827 110.733 42.3673C110.847 42.1465 110.904 41.8401 110.904 41.448C110.904 41.161 110.828 40.9235 110.676 40.7358C110.529 40.5481 110.286 40.3935 109.949 40.272C109.612 40.1451 109.147 40.0402 108.554 39.9573C107.629 39.8248 106.955 39.5709 106.531 39.1954C106.106 38.82 105.895 38.2734 105.895 37.5556C105.895 36.755 106.15 36.1615 106.661 35.7751C107.173 35.3886 107.961 35.1953 109.027 35.1953C109.767 35.1953 110.354 35.2782 110.79 35.4438C111.23 35.6039 111.546 35.8634 111.736 36.2223C111.926 36.5756 112.01 37.0477 111.989 37.6385H110.863C110.863 37.2796 110.8 36.9924 110.676 36.7771C110.556 36.5618 110.363 36.4044 110.096 36.3051C109.83 36.2057 109.473 36.156 109.027 36.156C108.565 36.156 108.193 36.2057 107.909 36.3051C107.632 36.4044 107.428 36.5618 107.298 36.7771C107.173 36.987 107.11 37.2685 107.11 37.6219C107.11 37.8814 107.178 38.0967 107.314 38.2678C107.45 38.439 107.679 38.5825 107.999 38.6985C108.326 38.8145 108.78 38.9138 109.362 38.9966C110.025 39.0905 110.55 39.2313 110.936 39.419C111.328 39.6012 111.614 39.8552 111.793 40.1809C111.972 40.5012 112.062 40.9235 112.062 41.448C112.062 42.0554 111.962 42.5412 111.761 42.9056C111.565 43.2645 111.252 43.5295 110.822 43.7007C110.392 43.8664 109.819 43.9492 109.101 43.9492Z" fill="#221827"></path></g><defs><clipPath id="clip0_1394_32309"><rect width="147.512" height="48" fill="white"></rect></clipPath></defs></svg> 